<?xml version="1.0" encoding="UTF-8"?>
<svg width="24px" height="24px" viewBox="0 0 24 24" version="1.1" xmlns="http://www.w3.org/2000/svg" xmlns:xlink="http://www.w3.org/1999/xlink">
    <!-- Generator: Sketch 51.3 (57544) - http://www.bohemiancoding.com/sketch -->
    <title>区域表现</title>
    <desc>Created with Sketch.</desc>
    <defs></defs>
    <g id="Page-1" stroke="none" stroke-width="1" fill="#ff0000" fill-rule="evenodd">
        <g id="MOCS-切图" transform="translate(-66.000000, -29.000000)">
            <path d="M77.9692308,30.3359023 C81.8461538,30.3359023 84.9846154,33.4506325 84.9846154,37.3348844 C84.9846154,42.1718773 80,46.5691435 78.4492308,47.7783917 C78.1538462,47.9982551 77.7846154,47.9982551 77.5261538,47.7783917 C75.9753846,46.6057874 70.9538462,42.1718773 70.9538462,37.3348844 C70.9538462,33.4506325 74.0923077,30.3359023 77.9692308,30.3359023 Z M77.9692308,40.2297513 C79.5938462,40.2297513 80.9230769,38.9105715 80.9230769,37.2982405 C80.9230769,35.6859096 79.5938462,34.3667297 77.9692308,34.3667297 C76.3446154,34.3667297 75.0153846,35.6859096 75.0153846,37.2982405 C75.0153846,38.9105715 76.3446154,40.2297513 77.9692308,40.2297513 Z" id="Combined-Shape" fill="#ff0000"></path>
            <path d="M73.1659903,45.9499758 C70.6611512,46.4363299 69,47.2895589 69,48.2608696 C69,49.7736495 73.0294373,51 78,51 C82.9705627,51 87,49.7736495 87,48.2608696 C87,47.2460253 85.186608,46.3600846 82.492202,45.8868147" id="Oval-2" stroke="#ccc000" stroke-width="2.7" fill-rule="nonzero" fill="#ecfdec"></path>
        </g>
    </g>
</svg>
